General


Format                           : MPEG-4
Format profile                   : Base Media
Codec ID                         : isom
File size                        : 83.6 MiB
Duration                         : 3mn 21s
Overall bit rate                 : 3 482 Kbps
Encoded date                     : UTC 2012-03-03 16:11:24
Tagged date                      : UTC 2012-03-03 16:11:24

Video
ID                               : 1
Format                           : AVC
Format/Info                      : Advanced Video Codec
Format profile                   : High@L3.0
Format settings, CABAC           : Yes
Format settings, ReFrames        : 2 frames
Codec ID                         : avc1
Codec ID/Info                    : Advanced Video Coding
Duration                         : 3mn 21s
Bit rate mode                    : Variable
Bit rate                         : 3 437 Kbps
Maximum bit rate                 : 11.7 Mbps
Width                            : 720 pixels
Height                           : 480 pixels
Display aspect ratio             : 4:3
Original display aspect ratio    : 4:3
Frame rate mode                  : Constant
Frame rate                       : 29.970 fps
Standard                         : NTSC
Color space                      : YUV
Chroma subsampling               : 4:2:0
Bit depth                        : 8 bits
Scan type                        : Progressive
Bits/(Pixel*Frame)               : 0.332
Stream size                      : 82.0 MiB (98%)


Audio
ID                               : 2
Format                           : AAC
Format/Info                      : Advanced Audio Codec
Format profile                   : LC
Codec ID                         : 40
Duration                         : 3mn 21s
Bit rate mode                    : Variable
Bit rate                         : 60.8 Kbps
Maximum bit rate                 : 76.5 Kbps
Channel(s)                       : 2 channels
Channel positions                : Front: L R
Sampling rate                    : 48.0 KHz
Compression mode                 : Lossy
Stream size                      : 1.46 MiB (2%)


